<?xml version="1.0" encoding="UTF-8"?>
<svg version="1.1" xmlns="http://www.w3.org/2000/svg" width="452" height="328">
<path d="M0 0 C22.56893791 19.39207862 37.55839956 43.7801651 41.3125 73.6875 C42.19077701 89.87808242 42.35066022 106.14358711 37.3125 121.6875 C37.09819336 122.3690918 36.88388672 123.05068359 36.66308594 123.75292969 C32.08359868 137.97133774 25.13531622 150.3921933 15.3125 161.6875 C14.24708984 162.95207031 14.24708984 162.95207031 13.16015625 164.2421875 C2.20222362 176.91410257 -15.26034267 191.18619718 -32.2109375 194.125 C-34.375 194.1875 -34.375 194.1875 -37.6875 193.6875 C-40.64519643 190.72980357 -39.98530528 187.53070108 -39.99609375 183.56640625 C-40.02128894 181.89127309 -40.04668635 180.21614296 -40.07226562 178.54101562 C-40.10079997 175.90829527 -40.12481521 173.27562885 -40.14379883 170.64282227 C-39.91653486 153.71850833 -39.91653486 153.71850833 -46.6875 138.6875 C-46.6875 138.0275 -46.6875 137.3675 -46.6875 136.6875 C-45.62273437 136.47996094 -44.55796875 136.27242187 -43.4609375 136.05859375 C-28.13910897 132.88103529 -15.63798664 128.0829315 -6.10546875 114.97265625 C1.5734676 102.59751089 3.23122869 85.42517444 0.1484375 71.3515625 C-1.67951159 65.52604251 -4.32998897 59.04501103 -8.6875 54.6875 C-8.6640625 52.62109375 -8.6640625 52.62109375 -8.3125 50.125 C-7.21886731 40.91476804 -7.95879947 32.80948224 -9.6875 23.6875 C-18.90104884 25.17735045 -26.77633419 27.51698363 -34.3125 33.125 C-38.95024107 36.00384546 -41.66575933 35.71669984 -46.9375 34.5625 C-47.60475098 34.40112549 -48.27200195 34.23975098 -48.95947266 34.07348633 C-54.90554055 32.68323837 -60.58608507 32.31354943 -66.6875 32.3125 C-68.09660645 32.31032471 -68.09660645 32.31032471 -69.53417969 32.30810547 C-75.37204423 32.39840264 -80.55714366 33.22579295 -86.1875 34.6875 C-92.54907566 36.10697133 -95.77381715 35.39109754 -101.125 32.0625 C-102.27503019 31.30779269 -103.41978533 30.5449736 -104.55859375 29.7734375 C-110.23720479 25.98769681 -115.83070907 24.16005454 -122.6875 24.6875 C-125.39281557 32.97252893 -125.83367653 42.34304257 -124.00390625 50.875 C-123.61031863 54.37355666 -124.30608252 55.3322557 -126.4375 58.0625 C-134.90166197 69.70808712 -135.00210349 83.64682771 -133.19140625 97.4765625 C-130.77310266 108.92593203 -125.93680848 119.16421735 -116.47265625 126.375 C-107.20162244 132.38539469 -96.46191395 134.83906781 -85.6875 136.6875 C-86.02523437 137.33976563 -86.36296875 137.99203125 -86.7109375 138.6640625 C-87.15695313 139.53804687 -87.60296875 140.41203125 -88.0625 141.3125 C-88.52914062 142.22386719 -88.99578125 143.13523438 -89.4765625 144.07421875 C-90.83171241 146.75054762 -90.83171241 146.75054762 -91.4375 150.125 C-92.94973523 153.22508222 -93.72120567 153.40841337 -96.875 154.5625 C-104.13547917 156.5109992 -110.00565914 156.05580502 -116.6875 152.6875 C-120.94676469 149.81901562 -123.32698187 146.88135083 -126.1875 142.625 C-129.83020949 137.25679655 -132.84710517 134.26520742 -139.375 132.9375 C-142.63242863 132.64987117 -142.63242863 132.64987117 -145.6875 132.6875 C-143.48481697 135.68314892 -141.28344053 138.05016858 -138.3515625 140.296875 C-134.16331982 143.83754127 -132.03038891 147.95416919 -129.625 152.8125 C-126.3648123 159.39669636 -123.79620729 163.52573164 -116.73046875 166.515625 C-108.83642313 168.31048169 -100.73207412 167.85374837 -92.6875 167.6875 C-92.60029081 171.27067958 -92.54703888 174.85358567 -92.5 178.4375 C-92.47486328 179.45328125 -92.44972656 180.4690625 -92.42382812 181.515625 C-92.41416016 182.4953125 -92.40449219 183.475 -92.39453125 184.484375 C-92.3788208 185.38510742 -92.36311035 186.28583984 -92.34692383 187.21386719 C-92.75857296 190.20370877 -93.57673429 191.55161342 -95.6875 193.6875 C-101.1857629 194.43756753 -105.45060083 192.95760882 -110.375 190.6875 C-111.07343018 190.37135742 -111.77186035 190.05521484 -112.49145508 189.72949219 C-138.63810804 177.5343031 -158.26657787 155.25829012 -168.40625 128.47265625 C-178.162193 99.65098318 -178.13030081 67.35834562 -164.6875 39.6875 C-159.76064073 29.78350738 -154.19390978 20.87631067 -146.6875 12.6875 C-145.85605469 11.77484375 -145.02460938 10.8621875 -144.16796875 9.921875 C-106.62187735 -29.43830281 -42.72176788 -33.93502129 0 0 Z " fill="#FFFFFF" transform="translate(294.6875,22.3125)"/>
<path d="M0 0 C4.88272329 3.99844338 9.22268396 8.24754061 13.4375 12.9375 C17.4435978 17.32084342 21.44013192 21.5153893 26.01171875 25.3203125 C28.40192876 27.33954689 30.65599942 29.48374158 32.9375 31.625 C44.19784808 41.87579963 56.72307298 50.64467635 69.1953125 59.34375 C69.83130371 59.79379395 70.46729492 60.24383789 71.12255859 60.70751953 C72.34708449 61.55051564 73.59482743 62.36100623 74.86572266 63.13232422 C80.16669559 66.48143851 82.38007739 70.5909934 85.125 76.125 C97.6303361 100.03555395 114.79298683 122.35514602 134.15234375 141.15234375 C135.74809579 142.74809579 137.16460274 144.35802095 138.5625 146.125 C141.13108645 149.15461479 143.88916304 151.58947452 146.90625 154.15625 C148.97844743 155.98102087 150.89234341 157.89188746 152.8125 159.875 C156.69653838 163.81984525 160.89794528 167.2513803 165.2109375 170.71484375 C167.88357285 172.90460801 170.44834878 175.17111198 173 177.5 C181.3229679 185.07232048 190.20025637 191.99456418 199 199 C196.53699673 203.18204953 193.848125 207.07420608 191 211 C186.11745129 210.50896569 182.81429959 208.09556969 178.9375 205.3125 C178.247771 204.82700684 177.55804199 204.34151367 176.84741211 203.84130859 C175.35020374 202.7870957 173.85525076 201.72967402 172.36230469 200.66943359 C169.9534251 198.96708566 167.52995625 197.28765538 165.1015625 195.61328125 C142.52553659 180.01517979 120.84546264 163.22340813 101.61328125 143.578125 C99.95437785 141.95537203 98.21964978 140.48575013 96.4375 139 C91.68747798 134.91405873 87.53042649 130.29748698 83.29052734 125.69702148 C79.78869456 121.90125297 76.23948437 118.18896093 72.5625 114.5625 C68.49373526 110.53336609 64.70105963 106.36633275 61 102 C59.78570312 100.60201172 59.78570312 100.60201172 58.546875 99.17578125 C34.6236921 71.50344282 7.83027127 36.40340903 0 0 Z M27 36 C27.33 36.99 27.66 37.98 28 39 C28 38.01 28 37.02 28 36 C27.67 36 27.34 36 27 36 Z " fill="#FFFFFF" transform="translate(9,49)"/>
<path d="M0 0 C1 2 1 2 0.06640625 5.1328125 C-0.42389478 6.46763413 -0.9261137 7.79811344 -1.4375 9.125 C-1.70900879 9.83712646 -1.98051758 10.54925293 -2.26025391 11.28295898 C-5.06071207 18.44309612 -8.42373532 25.2668095 -11.99414062 32.06933594 C-12.9497392 33.90352854 -13.87644624 35.7495298 -14.796875 37.6015625 C-22.7679897 53.38855245 -33.09299944 68.11061648 -44 82 C-44.639375 82.81984375 -45.27875 83.6396875 -45.9375 84.484375 C-57.63628033 99.29654042 -70.13859274 113.27485538 -83.56640625 126.53125 C-85.57119292 128.56499827 -87.42503615 130.62068591 -89.25 132.8125 C-94.33345878 138.75735633 -100.27434014 143.89608565 -106.02587891 149.17871094 C-107.92786652 150.93345093 -109.81595409 152.70176339 -111.69921875 154.4765625 C-118.57763877 160.94948615 -125.56770948 167.15959015 -133 173 C-133.98097656 173.77601563 -134.96195312 174.55203125 -135.97265625 175.3515625 C-148.85488231 185.4083189 -162.32927436 194.61570983 -175.875 203.75 C-176.92792236 204.46623535 -177.98084473 205.1824707 -179.06567383 205.92041016 C-180.05204834 206.58089355 -181.03842285 207.24137695 -182.0546875 207.921875 C-182.93624512 208.51581055 -183.81780273 209.10974609 -184.72607422 209.72167969 C-187 211 -187 211 -190 211 C-192.04296875 208.59375 -192.04296875 208.59375 -194.1875 205.5 C-195.26064453 203.96859375 -195.26064453 203.96859375 -196.35546875 202.40625 C-196.89816406 201.6121875 -197.44085938 200.818125 -198 200 C-194.29325615 196.1960756 -190.42115225 192.68833474 -186.375 189.25 C-185.45412598 188.46338989 -185.45412598 188.46338989 -184.51464844 187.66088867 C-180.79801142 184.4963468 -177.04229297 181.38631012 -173.25 178.3125 C-168.818802 174.71418503 -164.5579605 170.96604377 -160.33984375 167.12109375 C-158.21195185 165.19213665 -156.05279141 163.30963647 -153.875 161.4375 C-150.39566194 158.41320615 -147.16751258 155.18913389 -143.9375 151.90234375 C-142.16753522 150.16449527 -140.35093001 148.57601713 -138.4375 147 C-135.30618165 144.36716506 -132.69988507 141.48497013 -130.05859375 138.3671875 C-128.06242732 136.07178549 -125.9873975 133.86753391 -123.890625 131.66430664 C-110.68706379 117.70996304 -99.25820505 101.88938252 -89.375 85.4375 C-88.9931958 84.80602051 -88.6113916 84.17454102 -88.21801758 83.52392578 C-86.49623166 80.64372558 -84.90140811 77.79565039 -83.44140625 74.76953125 C-78.91231027 65.67604764 -72.33460299 61.53260552 -63.98193359 56.27734375 C-55.55712001 50.84760432 -47.74185819 44.34902013 -40 38 C-38.54013672 36.80310547 -38.54013672 36.80310547 -37.05078125 35.58203125 C-30.7341457 30.34655951 -24.629261 24.90322711 -18.625 19.3125 C-17.64442627 18.40455688 -17.64442627 18.40455688 -16.64404297 17.47827148 C-12.68368104 13.75541025 -9.02988207 9.8717524 -5.5012207 5.73706055 C-3.7614664 3.72399308 -1.91903767 1.84227616 0 0 Z M-27 36 C-27 39 -27 39 -27 39 Z " fill="#FFFFFF" transform="translate(442,49)"/>
<path d="M0 0 C3.5625 0.25 3.5625 0.25 7 1 C8.99701157 4.99402313 8.5158956 9.65974788 8 14 C6.96627214 16.73860739 5.74077312 19.17256629 4.2890625 21.7109375 C1.70810079 26.29409981 0.75439252 29.71943916 1 35 C2.66666667 35.33333333 4.33333333 35.66666667 6 36 C6.825 36.226875 7.65 36.45375 8.5 36.6875 C11.57400839 37.07175105 13.20783935 36.2491245 16 35 C16.99 35 17.98 35 19 35 C19.74762491 28.27137578 18.12963525 24.80041999 14.41015625 19.19921875 C12.1161926 15.62165217 11.81714363 12.66290476 11.75 8.5 C11.72421875 7.5409375 11.6984375 6.581875 11.671875 5.59375 C12 3 12 3 13.35546875 1.17578125 C15.66485985 -0.4753511 17.22912396 -0.35524052 20 0 C22 2 22 2 22.25 4.5 C22 7 22 7 20 9 C19.01 9 18.02 9 17 9 C19.71431906 14.89842412 22.80207317 19.57210801 27 24.5 C32.27624756 30.82275108 37.29188075 37.2822214 42.12890625 43.94726562 C44.27042623 46.86293618 45.96108331 48.97405554 49 51 C49.391875 50.505 49.78375 50.01 50.1875 49.5 C52 48 52 48 54.5625 47.6875 C57 48 57 48 59 50 C58.625 53.625 58.625 53.625 58 57 C51.4418277 57.47503864 46.26736849 57.37541135 41 53 C39.6750772 51.61595285 38.36322947 50.21930837 37.0625 48.8125 C34.28852849 45.88653005 32.54189302 44.47761346 28.5 44 C27.345 44 26.19 44 25 44 C25.66 44.66 26.32 45.32 27 46 C28.34262065 45.70630173 29.67696283 45.3721042 31 45 C31.66 45.33 32.32 45.66 33 46 C33.16435547 47.11761719 33.16435547 47.11761719 33.33203125 48.2578125 C34.22320957 51.91633403 35.95645344 53.31949156 38.6875 55.875 C42.73117556 59.75043081 46.43488597 63.68433565 50 68 C51.32 67.67 52.64 67.34 54 67 C54.99 68.485 54.99 68.485 56 70 C59.5 70.16666667 59.5 70.16666667 63 70 C63.66 70.33 64.32 70.66 65 71 C65.59765625 72.99609375 65.59765625 72.99609375 66.0625 75.4375 C66.7144301 78.82474047 66.7144301 78.82474047 68 82 C68.375 85.4375 68.375 85.4375 68 89 C65.72845906 91.27154094 64.04012626 91.93416922 60.83984375 92.13671875 C59.27563635 92.12888466 57.71131743 92.0922474 56.1484375 92.02734375 C53.85564586 91.91044517 53.85564586 91.91044517 51.125 92.6875 C49 93 49 93 47.25 91.9375 C46 90 46 90 45.5625 86.9375 C45.376875 85.968125 45.19125 84.99875 45 84 C43.04836882 82.56362302 43.04836882 82.56362302 41 82 C41.495 80.515 41.495 80.515 42 79 C41.26136719 78.70867187 40.52273438 78.41734375 39.76171875 78.1171875 C33.33897278 75.52197375 27.38369321 72.65879252 21.47265625 69.0390625 C18.51766872 67.79731419 17.01972304 68.08165847 14 69 C13.855625 68.21625 13.71125 67.4325 13.5625 66.625 C13.12201075 64.03578982 13.12201075 64.03578982 12 62 C9.525 62.495 9.525 62.495 7 63 C7 64.65 7 66.3 7 68 C2.25 69 2.25 69 0 69 C-1.43323702 69.60374587 -2.84603818 70.25645135 -4.24609375 70.93359375 C-5.08333984 71.33513672 -5.92058594 71.73667969 -6.78320312 72.15039062 C-8.09708008 72.78750977 -8.09708008 72.78750977 -9.4375 73.4375 C-11.16462539 74.27106458 -12.8924612 75.10315921 -14.62109375 75.93359375 C-15.3886499 76.30540771 -16.15620605 76.67722168 -16.94702148 77.06030273 C-19 78 -19 78 -22 79 C-22 80.32 -22 81.64 -22 83 C-23.485 83.495 -23.485 83.495 -25 84 C-25.103125 84.928125 -25.20625 85.85625 -25.3125 86.8125 C-26.02973434 90.13785922 -26.35729142 91.02397472 -29 93 C-30.98046875 93.109375 -30.98046875 93.109375 -33.1875 92.75 C-33.97640625 92.63011719 -34.7653125 92.51023437 -35.578125 92.38671875 C-36.37734375 92.25910156 -37.1765625 92.13148438 -38 92 C-39.47891195 91.85160577 -40.95806486 91.70558406 -42.4375 91.5625 C-46 91 -46 91 -48 89 C-48.32781044 84.57455901 -48.05099277 81.86069228 -46 78 C-45.835 76.783125 -45.67 75.56625 -45.5 74.3125 C-45.335 73.219375 -45.17 72.12625 -45 71 C-43 70 -43 70 -39.5 70.125 C-38.345 70.08375 -37.19 70.0425 -36 70 C-35.34 69.01 -34.68 68.02 -34 67 C-32.68 67.33 -31.36 67.66 -30 68 C-29.5560791 67.52578613 -29.1121582 67.05157227 -28.65478516 66.56298828 C-26.64520481 64.41666601 -24.63510857 62.27082757 -22.625 60.125 C-21.92632812 59.37863281 -21.22765625 58.63226563 -20.5078125 57.86328125 C-19.8375 57.14785156 -19.1671875 56.43242187 -18.4765625 55.6953125 C-17.85861816 55.03547363 -17.24067383 54.37563477 -16.60400391 53.69580078 C-15.42157912 52.44570602 -14.21673031 51.21673031 -13 50 C-12.35232207 47.42938689 -12.35232207 47.42938689 -12 45 C-9.03 45.495 -9.03 45.495 -6 46 C-5.505 45.01 -5.505 45.01 -5 44 C-9.44945242 43.91910087 -11.86155078 44.0375799 -15.32421875 46.96484375 C-16.86404321 48.5778687 -18.39397084 50.20039703 -19.9140625 51.83203125 C-23.84347038 55.9159664 -27.21538068 57.13542985 -32.75 57.25 C-35.29163872 57.19812982 -36.71515295 57.14242352 -39 56 C-39.125 53.125 -39.125 53.125 -39 50 C-37 48 -37 48 -34.5625 47.6875 C-31.60720543 48.04790178 -30.81112073 48.71226855 -29 51 C-23.97151677 47.51584496 -20.87544396 43.0386005 -17.375 38.125 C-12.53760012 31.42775189 -7.6226348 24.83741697 -2.37646484 18.45361328 C0.05596581 15.43814915 1.77638451 12.68444219 3 9 C2.360625 8.855625 1.72125 8.71125 1.0625 8.5625 C-1 8 -1 8 -2 7 C-2.1875 4.5625 -2.1875 4.5625 -2 2 C-1.34 1.34 -0.68 0.68 0 0 Z M0 35 C1 37 1 37 1 37 Z M25 48 C26 50 26 50 26 50 Z M-5 50 C-4 52 -4 52 -4 52 Z M24 50 C25 52 25 52 25 52 Z M-3 53 C-2 55 -2 55 -2 55 Z M22 53 C23 55 23 55 23 55 Z M30 53 C31 55 31 55 31 55 Z M-35 71 C-34 73 -34 73 -34 73 Z M54 71 C55 73 55 73 55 73 Z M-28 72 C-27 74 -27 74 -27 74 Z M47 72 C48 74 48 74 48 74 Z M-34 73 C-33 75 -33 75 -33 75 Z M53 73 C54 75 54 75 54 75 Z " fill="#FFFFFF" transform="translate(216,224)"/>
</svg>
